#!OML:ASF E:\motion texture\Top Level 1\Subject 1\Session 1\male.ASF
:FULLY-SPECIFIED
:DEGREES
414
root -11.1204 18.0066 1.95923 20.3663 -75.6125 -10.6546
lowerback 2.18565 0.560841 0.834179
upperback -1.53182 0.827245 3.83164
thorax -2.84795 0.415416 3.44506
lowerneck -15.0219 2.26385 -1.62598
upperneck 6.25679 3.02121 2.97124
head 4.22465 1.62284 1.41658
rclavicle -2.32578e-014 1.03368e-014
rhumerus -44.6896 -32.1656 -54.9013
rradius 19.473
rwrist 22.7679
rhand -14.5087 -34.531
rfingers 7.12502
rthumb 11.6386 -64.1877
lclavicle -2.32578e-014 1.03368e-014
lhumerus -32.3294 16.7844 74.2041
lradius 38.3256
lwrist -16.4738
lhand -16.3796 25.3345
lfingers 7.12502
lthumb 9.8339 55.0848
rfemur -29.3706 -4.01796 24.6979
rtibia 17.2289
rfoot 0.366795 -21.3099
rtoes 20.3467
lfemur -3.12306 -5.26543 -12.707
ltibia 26.2714
lfoot -6.11607 -1.34594
ltoes -25.9115
415
root -11.2647 18.0168 1.95181 21.3626 -75.9294 -11.6308
lowerback 2.14216 0.630396 0.997544
upperback -1.55943 0.924218 3.91215
thorax -2.85612 0.460264 3.43246
lowerneck -14.9671 2.36645 -1.53088
upperneck 6.29701 3.15195 2.84489
head 4.22856 1.68184 1.37187
rclavicle 2.5842e-015 3.65764e-014
rhumerus -43.1919 -31.4908 -56.7685
rradius 19.7545
rwrist 22.1396
rhand -14.5333 -34.2474
rfingers 7.12502
rthumb 11.6148 -63.9055
lclavicle 2.5842e-015 3.65764e-014
lhumerus -32.2326 16.4816 74.3736
lradius 38.8125
lwrist -16.0763
lhand -16.5563 25.2511
lfingers 7.12502
lthumb 9.66341 55.0095
rfemur -28.9254 -3.82615 25.1335
rtibia 17.2143
rfoot 0.414474 -20.9555
rtoes 20.7708
lfemur -3.58661 -5.2068 -12.4273
ltibia 27.4624
lfoot -5.39045 -1.35194
ltoes -26.2948
416
root -11.4089 18.0271 1.94421 22.4223 -76.2406 -12.6742
lowerback 2.10077 0.702984 1.16827
upperback -1.58422 1.02519 3.99354
thorax -2.86242 0.506843 3.41652
lowerneck -14.9126 2.46438 -1.43798
upperneck 6.33393 3.27633 2.72559
head 4.23179 1.73807 1.32917
rclavicle -5.70512e-014 3.65764e-014
rhumerus -41.693 -30.748 -58.6236
rradius 20.0406
rwrist 21.5436
rhand -14.5459 -33.9437
rfingers 7.12502
rthumb 11.6027 -63.6025
lclavicle -5.70512e-014 3.65764e-014
lhumerus -32.1405 16.1683 74.5597
lradius 39.2716
lwrist -15.7375
lhand -16.7118 25.1455
lfingers 7.12502
lthumb 9.51339 54.9108
rfemur -28.4557 -3.62834 25.5651
rtibia 17.1736
rfoot 0.429444 -20.6045
rtoes 21.1631
lfemur -4.10138 -5.13379 -12.1412
ltibia 28.6993
lfoot -4.6511 -1.36413
ltoes -26.602
417
root -11.553 18.0376 1.93648 23.5461 -76.5449 -13.7861
lowerback 2.06134 0.778389 1.34595
upperback -1.60564 1.12982 4.07579
thorax -2.86612 0.55499 3.3975
lowerneck -14.8589 2.55744 -1.34837
upperneck 6.36873 3.39415 2.6145
head 4.23471 1.7915 1.28902
rclavicle 0 -4.77083e-014
rhumerus -40.199 -29.9384 -60.4564
rradius 20.3311
rwrist 20.9816
rhand -14.5477 -33.6239
rfingers 7.12502
rthumb 11.601 -63.2828
lclavicle 0 -4.77083e-014
lhumerus -32.0516 15.8455 74.7628
lradius 39.7011
lwrist -15.4582
lhand -16.8444 25.0225
lfingers 7.12502
lthumb 9.38544 54.7935
rfemur -27.963 -3.42683 25.9928
rtibia 17.1086
rfoot 0.408721 -20.2572
rtoes 21.5144
lfemur -4.66544 -5.04744 -11.8496
ltibia 29.9762
lfoot -3.90922 -1.38119
ltoes -26.8437
418
root -11.6967 18.0482 1.92864 24.7308 -76.8414 -14.9633
lowerback 2.02621 0.855674 1.5297
upperback -1.62628 1.23703 4.15768
thorax -2.87112 0.604199 3.37466
lowerneck -14.8008 2.64606 -1.25937
upperneck 6.40247 3.5055 2.51096
head 4.23684 1.8422 1.25074
rclavicle -8.94531e-015 -1.35174e-014
rhumerus -38.7215 -29.0647 -62.2543
rradius 20.6241
rwrist 20.4604
rhand -14.5387 -33.2914
rfingers 7.12502
rthumb 11.6097 -62.9498
lclavicle -8.94531e-015 -1.35174e-014
lhumerus -31.9708 15.513 74.9788
lradius 40.101
lwrist -15.2376
lhand -16.9565 24.8831
lfingers 7.12502
lthumb 9.27732 54.659
rfemur -27.4488 -3.2239 26.4154
rtibia 17.02
rfoot 0.351807 -19.9144
rtoes 21.827
lfemur -5.277 -4.94864 -11.5542
ltibia 31.2869
lfoot -3.17277 -1.40227
ltoes -27.0141
419
root -11.8401 18.0586 1.9208 25.9806 -77.1306 -16.2092
lowerback 1.99466 0.935967 1.72105
upperback -1.64509 1.3483 4.23823
thorax -2.87589 0.655167 3.34605
lowerneck -14.7431 2.72932 -1.17166
upperneck 6.43623 3.60929 2.41514
head 4.23925 1.88963 1.21448
rclavicle -2.78299e-014 6.36111e-015
rhumerus -37.264 -28.133 -64.0096
rradius 20.9209
rwrist 19.9797
rhand -14.5226 -32.9473
rfingers 7.12502
rthumb 11.6252 -62.6049
lclavicle -2.78299e-014 6.36111e-015
lhumerus -31.8935 15.17 75.2089
lradius 40.4706
lwrist -15.0739
lhand -17.0469 24.7278
lfingers 7.12502
lthumb 9.19011 54.5076
rfemur -26.9189 -3.02335 26.8339
rtibia 16.9144
rfoot 0.260538 -19.5719
rtoes 22.1026
lfemur -5.9356 -4.83723 -11.256
ltibia 32.6248
lfoot -2.45239 -1.42535
ltoes -27.1163
420
root -11.9832 18.0689 1.91289 27.2908 -77.4102 -17.5204
lowerback 1.96527 1.01926 1.91697
upperback -1.65869 1.46334 4.31844
thorax -2.87616 0.707821 3.31445
lowerneck -14.6905 2.80685 -1.0898
upperneck 6.47035 3.70556 2.33014
head 4.24261 1.9339 1.18201
rclavicle -2.67365e-014 -9.54166e-015
rhumerus -35.8272 -27.149 -65.7152
rradius 21.2234
rwrist 19.537
rhand -14.4987 -32.5963
rfingers 7.12502
rthumb 11.6482 -62.2525
lclavicle -2.67365e-014 -9.54166e-015
lhumerus -31.8125 14.8176 75.4567
lradius 40.8092
lwrist -14.9644
lhand -17.1149 24.5715
lfingers 7.12502
lthumb 9.1245 54.3541
rfemur -26.3729 -2.82517 27.2472
rtibia 16.7937
rfoot 0.138411 -19.2326
rtoes 22.3392
lfemur -6.63681 -4.7149 -10.9555
ltibia 33.982
lfoot -1.75853 -1.45033
ltoes -27.1612
421
root -12.1256 18.079 1.90499 28.6622 -77.6793 -18.8958
lowerback 1.93903 1.105 2.11907
upperback -1.67011 1.5816 4.39666
thorax -2.87543 0.761861 3.27728
lowerneck -14.6401 2.8784 -1.00962
upperneck 6.50645 3.79349 2.25273
head 4.24707 1.97451 1.15159
rclavicle -1.36167e-014 3.97569e-014
rhumerus -34.4194 -26.117 -67.3638
rradius 21.5316
rwrist 19.1334
rhand -14.4697 -32.243
rfingers 7.12502
rthumb 11.6762 -61.8977
lclavicle -1.36167e-014 3.97569e-014
lhumerus -31.7317 14.4552 75.7181
lradius 41.1161
lwrist -14.9053
lhand -17.1656 24.4059
lfingers 7.12502
lthumb 9.07553 54.1907
rfemur -25.816 -2.63252 27.6555
rtibia 16.6613
rfoot -0.00904373 -18.8926
rtoes 22.5347
lfemur -7.38129 -4.58285 -10.6535
ltibia 35.3514
lfoot -1.10007 -1.47624
ltoes -27.138
422
root -12.2676 18.0888 1.89715 30.0948 -77.9394 -20.3364
lowerback 1.91739 1.19278 2.32588
upperback -1.68096 1.7027 4.47261
thorax -2.87615 0.817127 3.23505
lowerneck -14.5858 2.94524 -0.931644
upperneck 6.54395 3.87461 2.18539
head 4.25136 2.01233 1.12406
rclavicle -1.80894e-014 -1.82882e-014
rhumerus -33.0474 -25.0372 -68.9503
rradius 21.846
rwrist 18.7658
rhand -14.4382 -31.8916
rfingers 7.12502
rthumb 11.7066 -61.5445
lclavicle -1.80894e-014 -1.82882e-014
lhumerus -31.657 14.0846 75.9893
lradius 41.3929
lwrist -14.8948
lhand -17.2 24.2287
lfingers 7.12502
lthumb 9.04236 54.0149
rfemur -25.2481 -2.44563 28.0581
rtibia 16.5179
rfoot -0.177327 -18.5529
rtoes 22.6976
lfemur -8.16409 -4.44074 -10.3519
ltibia 36.7247
lfoot -0.486717 -1.50162
ltoes -27.0588
